<?xml version="1.0" encoding="utf-8"?>
<!-- Generator: Adobe Illustrator 25.0.0, SVG Export Plug-In . SVG Version: 6.00 Build 0)  -->
<svg height="400" width="500" version="1.1" id="Layer_1" xmlns="http://www.w3.org/2000/svg" xmlns:xlink="http://www.w3.org/1999/xlink" x="0px" y="0px"
	 viewBox="0 0 1000 1000" style="enable-background:new 0 0 1000 1000;" xml:space="preserve">
<g>
	<path d="M250.2,303.39c0,46.08,0,91.88,0,137.69c-0.32,0.14-0.64,0.28-0.96,0.42c-66.86-98.49-133.71-196.98-200.89-295.95
		c1.55-0.16,2.64-0.37,3.74-0.37c131.1-0.01,262.19,0,393.29-0.09c3.06,0,4.46,1,5.77,3.7c14.57,29.89,29.29,59.7,43.97,89.53
		c0.47,0.95,0.93,1.89,1.78,3.63c0.9-1.79,1.54-3.01,2.13-4.26c14.06-29.63,28.14-59.25,42.1-88.93c1.26-2.69,2.67-3.69,5.74-3.69
		c133.67,0.09,267.34,0.08,401.01,0.08c0.9,0,1.81,0,3.79,0c-68.42,99.19-136.43,197.76-204.43,296.34
		c-0.28-0.07-0.56-0.15-0.84-0.22c0-45.87,0-91.74,0-138.08c-2.14,0-3.76,0-5.38,0c-35.57,0-71.15,0.05-106.72-0.08
		c-3.26-0.01-5.13,1.01-6.97,3.68c-42.52,61.46-85.13,122.85-127.73,184.25c-0.75,1.08-1.59,2.11-2.71,3.6
		c-5.91-8.54-11.57-16.7-17.22-24.87c-37.58-54.38-75.17-108.77-112.72-163.17c-1.44-2.09-2.75-3.5-5.71-3.49
		c-35.88,0.13-71.75,0.08-107.63,0.09C252.56,303.21,251.54,303.32,250.2,303.39z"/>
	<path d="M496.81,854.92c-21.23-30.1-42.24-59.89-63.26-89.68c-33.84-47.97-67.69-95.92-101.45-143.94
		c-1.29-1.83-2.25-4.36-2.26-6.56c-0.12-56.31-0.1-112.63-0.09-168.94c0-1.2,0.11-2.39,0.21-4.26c6.57,0,13.14,0.79,19.44-0.17
		c11.63-1.78,17.73,3.19,23.86,12.95c39.7,63.29,80.18,126.09,120.42,189.05c0.97,1.51,2,2.98,3.23,4.81
		c0.95-1.33,1.76-2.37,2.46-3.47c42.54-66.33,85.1-132.64,127.56-199.03c1.91-2.99,3.85-4.36,7.54-4.25
		c9.79,0.29,19.6,0.1,29.94,0.1c0,2.09,0,3.71,0,5.32c0,55.71,0.02,111.42-0.08,167.12c0,2.24-0.64,4.87-1.9,6.67
		c-54.71,77.67-109.53,155.27-164.34,232.88C497.83,853.88,497.49,854.17,496.81,854.92z"/>
</g>
</svg>
